<svg xmlns="http://www.w3.org/2000/svg" viewBox="0 0 320 90" width="320" height="90" role="img" aria-label="HITSTER">
  <title>HITSTER</title>
  <defs>
    <filter id="glow" x="-20%" y="-20%" width="140%" height="140%">
      <feGaussianBlur stdDeviation="1.6" result="b"/>
      <feMerge><feMergeNode in="b"/><feMergeNode in="b"/><feMergeNode in="SourceGraphic"/></feMerge>
    </filter>
  </defs>
  <g fill="none" stroke="#ff2fb3" stroke-width="3.5" stroke-linecap="round" stroke-linejoin="round" filter="url(#glow)">
    <!-- H -->
    <path d="M14 14v62M14 45h28M42 14v62"/>
    <!-- I -->
    <path d="M60 14v62"/>
    <!-- T -->
    <path d="M76 14h40M96 14v62"/>
    <!-- S -->
    <path d="M160 18c-4-3-9-4-16-4h-8c-8 0-12 5-12 12v4c0 7 4 11 12 13l12 3c8 2 12 6 12 13v4c0 8-5 13-13 13h-9c-7 0-12-2-16-5"/>
    <!-- T -->
    <path d="M172 14h40M192 14v62"/>
    <!-- E -->
    <path d="M254 14h-30v62h30M224 45h24"/>
    <!-- R -->
    <path d="M268 76V14h20c10 0 16 6 16 15v2c0 9-6 15-16 15h-20M288 46l18 30"/>
  </g>
  <!-- The Hebrew line is rendered as HTML text (Logo.tsx): SVG text with letter-spacing
       is laid out left-to-right by some browsers (e.g. iOS Safari), reversing Hebrew. -->
</svg>
